<svg width="121" height="18" viewBox="0 0 121 18" fill="none" xmlns="http://www.w3.org/2000/svg">
<g clip-path="url(#clip0_1_3)">
<path d="M45.7853 11.7803L45.557 12.0096C45.4428 12.1242 42.7025 14.8758 41.732 17.6274C41.418 17.6274 37.5931 17.6274 36.9365 17.6274C38.0212 13.5287 43.302 9.28662 43.359 9.25796L43.6159 9.02866L43.359 8.79936C43.302 8.74204 38.7348 4.90127 36.9936 0.573248C37.7072 0.573248 41.5037 0.573248 41.8462 0.573248C42.988 3.98408 45.4142 5.99045 45.4999 6.04777L45.6712 6.21975L45.8424 6.04777C45.9566 5.93312 48.44 3.92675 49.6103 0.573248C49.9243 0.573248 53.7492 0.573248 54.4628 0.573248C52.636 4.90127 48.0403 8.74204 48.0118 8.79936L47.7549 9.02866L48.0118 9.25796C48.0689 9.31529 53.3496 13.4713 54.5199 17.6274C53.8634 17.6274 50.0955 17.6274 49.7245 17.6274C48.811 14.9331 45.9566 12.1242 45.8424 12.0096L45.7853 11.7803ZM27.6881 17.9427C31.2847 17.9427 33.6254 16.4236 34.4246 15.793C33.8823 15.535 31.9983 14.5892 31.7414 14.4459C31.3704 14.8758 30.1144 15.3057 28.0878 15.3057C25.5473 15.3057 24.4912 14.2166 24.4912 10.5478V10.2898H24.7481C28.887 10.2898 32.0269 9.54459 34.7101 7.79618C34.7672 7.56688 34.9384 6.87898 34.9384 6.27707C34.9384 3.46815 33.0545 0.229299 27.7738 0.229299C22.1791 0.229299 19.4388 3.15287 19.4388 9.08599C19.3817 15.3057 21.8651 17.9427 27.6881 17.9427ZM24.4626 7.8535C24.4626 5.24522 24.8337 2.72293 27.8594 2.72293C29.4293 2.72293 30.4855 3.46815 30.4855 5.4172C30.4855 6.01911 30.1715 6.64968 30.1715 6.70701L30.1144 6.82166L29.9431 6.93631C28.4303 7.73885 27.631 8.16879 24.7195 8.16879H24.4626V7.8535ZM15.8422 8.91401C15.8422 2.92357 12.8165 0 6.67941 0C6.67941 0 0.542345 0 0 0C0 0.544586 0 17.3694 0 17.9427C1.34159 17.9427 6.67941 17.9427 6.67941 17.9427C12.8165 17.914 15.8422 14.9904 15.8422 8.91401ZM4.90965 2.75159C4.90965 2.75159 5.22364 2.75159 6.85067 2.75159C7.27884 2.75159 7.70701 2.80892 8.19226 2.98089C9.76221 3.78344 10.5044 5.35987 10.5044 8.97134C10.5044 12.9841 9.59094 14.5892 7.64992 15.1911L6.85067 15.2484C5.22364 15.2484 4.90965 15.2484 4.90965 15.2484V2.75159ZM116.319 17.5701C116.319 17.0255 116.319 5.07325 116.319 5.07325C116.319 3.29618 116.09 2.75159 114.806 2.75159C112.551 2.75159 111.637 4.32803 111.58 4.38535L111.523 4.44268C111.523 4.44268 111.523 17.0541 111.523 17.5701C111.038 17.5701 107.213 17.5701 106.728 17.5701C106.728 17.0255 106.728 5.07325 106.728 5.07325C106.728 3.29618 106.499 2.75159 105.215 2.75159C102.96 2.75159 102.046 4.32803 101.989 4.38535L101.932 4.44268C101.932 4.44268 101.932 17.0541 101.932 17.5701C101.447 17.5701 97.6221 17.5701 97.1939 17.5701C97.1939 17.0255 97.1939 4.0414 97.1939 4.0414C97.1939 2.8949 96.0521 1.83439 94.8247 1.17516C95.7952 0.917197 98.4784 0.0859873 98.6497 0.0286624C99.192 0.257962 100.477 0.83121 100.848 1.3758L101.019 1.6051L101.247 1.43312C101.247 1.43312 103.388 0.0859873 106.214 0.0859873C108.269 0.0859873 109.725 0.458599 110.581 1.28981L110.753 1.40446L110.924 1.34713C112.694 0.544586 114.321 0.11465 115.776 0.11465C119.658 0.11465 121.057 1.69108 121.057 3.15287C121.057 3.15287 121.057 17.0541 121.057 17.5987C120.629 17.5701 116.804 17.5701 116.319 17.5701ZM62.4268 9.08599C62.4268 13.6147 63.6542 15.3057 66.3088 15.3057C68.3069 15.3057 69.3345 14.9331 69.7056 14.5032C70.0196 14.6752 71.9035 15.6497 72.4459 15.9076C71.7322 16.5096 69.5914 18.0287 66.1946 18.0287C60.3145 18.0287 57.2602 14.9331 57.2602 9.17198C57.2602 3.32484 60.343 0.315287 66.1946 0.315287C69.5914 0.315287 71.7322 1.8344 72.4459 2.43631C71.9035 2.69427 70.0196 3.66879 69.7056 3.84076C69.3345 3.41083 68.364 3.03822 66.3659 3.03822C63.6542 2.86624 62.4268 4.5 62.4268 9.08599ZM83.2642 0.171975C77.9264 0.171975 74.7009 3.46815 74.7009 9.02866C74.7009 14.5892 77.8693 17.8854 83.2642 17.8854C88.602 17.8854 91.7134 14.5892 91.7134 9.02866C91.7705 3.52548 88.602 0.171975 83.2642 0.171975ZM83.2642 15.0764C80.9521 15.0764 79.9245 13.6147 79.9245 9.08599C79.9245 4.55733 80.9521 3.09554 83.2642 3.09554C85.5192 3.09554 86.4897 4.5 86.4897 9.08599C86.5468 13.672 85.5763 15.0764 83.2642 15.0764Z" fill="white"/>
</g>
<defs>
<clipPath id="clip0_1_3">
<rect width="121" height="18" fill="white"/>
</clipPath>
</defs>
</svg>
